<?xml version="1.0" encoding="utf-8"?>
<!-- Svg Vector Icons : http://www.onlinewebfonts.com/icon -->
<!DOCTYPE svg PUBLIC "-//W3C//DTD SVG 1.1//EN" "http://www.w3.org/Graphics/SVG/1.1/DTD/svg11.dtd">
<svg version="1.1" xmlns="http://www.w3.org/2000/svg" xmlns:xlink="http://www.w3.org/1999/xlink" x="0px" y="0px" viewBox="0 0 1000 1000" enable-background="new 0 0 1000 1000" xml:space="preserve">
<metadata> Svg Vector Icons : http://www.onlinewebfonts.com/icon </metadata>
<g><g transform="translate(0.000000,511.000000) scale(0.100000,-0.100000)"><path d="M5966.5,4660.1l-241.3-241.2l252.2-252.2l252.2-252.2L3341.3,1023.9C1266.6-1050.9,431-1904,367.4-2000.5C-53.7-2662.8,29.7-3553.2,567-4127.8c247.8-263.2,574.6-451.8,912.3-524.1c190.8-39.5,568-39.5,747.9,2.2c206.2,48.3,401.3,131.6,579,245.6c122.8,76.8,769.8,712.8,3028.7,2969.5l2873,2870.8l247.8-245.6l245.6-247.8l241.3,241.2c131.6,131.6,241.2,250,241.2,263.2c0,28.5-3425.7,3454.2-3454.2,3454.2C6216.5,4901.3,6098.1,4791.6,5966.5,4660.1z M7475.4,2668.7l739.1-739.1L5348-934.6C3170.2-3108,2453.1-3809.8,2369.7-3853.7c-193-100.9-344.3-133.8-579-122.8c-188.6,6.6-228.1,15.4-375,87.7c-204,96.5-333.4,206.1-443,377.2c-210.5,326.8-228.1,710.6-46.1,1076.8c43.9,85.5,662.3,717.1,2919.1,2978.3C5422.6,2120.4,6716.5,3410,6723.1,3410C6729.7,3410,7067.5,3076.6,7475.4,2668.7z"/><path fill="#1E88E5" d="M2378.5-1408.3C1512.2-2279,1257.8-2546.6,1216.2-2632.1c-41.7-89.9-52.6-144.7-52.6-307c0-171.1,8.8-212.7,59.2-309.2c76.8-146.9,252.2-302.7,394.8-350.9c164.5-54.8,412.3-35.1,557.1,43.9c79,41.7,559.2,508.8,1710.6,1660.2L5484-296.4h-997.9H3486.1L2378.5-1408.3z"/><path fill="#1E88E5" d="M8907.5,276c-337.7-344.3-394.8-449.6-394.8-704c0-206.2,59.2-348.7,201.8-489.1c151.3-149.1,282.9-201.8,497.8-199.6c199.6,0,315.8,43.9,467.1,175.4C9879-770.1,9955.8-439,9857.1-175.8c-41.7,114.1-89.9,173.3-344.3,434.2c-164.5,164.5-302.6,300.5-311.4,300.5C9192.6,558.9,9061,431.7,8907.5,276z"/></g></g>
</svg>